# xmcd
#
# Track frame offsets:
#	150
#	18822
#	35692
#	52134
#	66674
#	86280
#	106731
#	126453
#	143808
#	163302
#
# Disc length: 2441 seconds
#
# Revision: 9
# Processed by: cddbd v1.5.2PL0 Copyright (c) Steve Scherf et al.
# Submitted via: EZCDAudioConverter 7.1.5.1
#
DISCID=8e09870a
DTITLE=阿杜 - 坚持到底
DYEAR=2002
DGENRE=Pop
TTITLE0=坚持到底
TTITLE1=惩罚
TTITLE2=放手
TTITLE3=天蝎蝴蝶
TTITLE4=幻想
TTITLE5=你就像个小孩
TTITLE6=下次如果离开你
TTITLE7=恩赐
TTITLE8=相容
TTITLE9=雨衣
EXTD=
EXTT0=
EXTT1=
EXTT2=
EXTT3=
EXTT4=
EXTT5=
EXTT6=
EXTT7=
EXTT8=
EXTT9=
PLAYORDER=
